<svg xmlns="http://www.w3.org/2000/svg" version="1.1" xmlns:xlink="http://www.w3.org/1999/xlink" width="1000" height="1000"><style>
    #light-icon {
      display: inline;
    }
    #dark-icon {
      display: none;
    }

    @media (prefers-color-scheme: dark) {
      #light-icon {
        display: none;
      }
      #dark-icon {
        display: inline;
      }
    }
  </style><g id="light-icon"><svg xmlns="http://www.w3.org/2000/svg" version="1.1" xmlns:xlink="http://www.w3.org/1999/xlink" width="1000" height="1000"><g><g transform="matrix(23.80952380952381,0,0,23.80952380952381,0,0)"><svg xmlns="http://www.w3.org/2000/svg" version="1.1" xmlns:xlink="http://www.w3.org/1999/xlink" width="42" height="42"><svg width="42" height="42" viewBox="0 0 42 42" fill="none" xmlns="http://www.w3.org/2000/svg">
<path d="M14.1193 8.8911C14.1193 9.2031 14.1193 14.9798 14.0416 23.7229C13.8086 27.318 13.6486 28.8922 13.5709 30.7807C13.4932 31.5773 13.3379 32.0453 13.1779 32.5275M26.3582 7V11.3704C26.3582 15.4287 26.3581 23.3847 26.2805 27.7173C26.2028 32.0498 26.0475 32.5178 25.8874 33M8 25.4366C9.86879 25.4366 14.882 24.8126 18.2665 24.0208C20.8657 23.4127 23.6752 22.449 25.9582 22.0495C28.2668 21.6456 30.1147 20.8701 32 20.6313" stroke="#101828" stroke-width="3" stroke-linecap="round"></path>
</svg></svg></g></g></svg></g><g id="dark-icon"><svg xmlns="http://www.w3.org/2000/svg" version="1.1" xmlns:xlink="http://www.w3.org/1999/xlink" width="1000" height="1000"><g><g transform="matrix(23.80952380952381,0,0,23.80952380952381,0,0)"><svg xmlns="http://www.w3.org/2000/svg" version="1.1" xmlns:xlink="http://www.w3.org/1999/xlink" width="42" height="42"><svg width="42" height="42" viewBox="0 0 42 42" fill="none" xmlns="http://www.w3.org/2000/svg">
<path d="M14.1193 8.8911C14.1193 9.2031 14.1193 14.9798 14.0416 23.7229C13.8086 27.318 13.6486 28.8922 13.5709 30.7807C13.4932 31.5773 13.3379 32.0453 13.1779 32.5275M26.3582 7V11.3704C26.3582 15.4287 26.3581 23.3847 26.2805 27.7173C26.2028 32.0498 26.0475 32.5178 25.8874 33M8 25.4366C9.86879 25.4366 14.882 24.8126 18.2665 24.0208C20.8657 23.4127 23.6752 22.449 25.9582 22.0495C28.2668 21.6456 30.1147 20.8701 32 20.6313" stroke="white" stroke-width="3" stroke-linecap="round"></path>
</svg></svg></g></g></svg></g></svg>